<?xml version="1.0" encoding="UTF-8"?>
<svg id="Layer_2" xmlns="http://www.w3.org/2000/svg" viewBox="0 0 307.72 324.78">
  <defs>
    <style>
      .cls-1 {
        fill: #fff;
        stroke: #000;
        stroke-linecap: round;
        stroke-linejoin: round;
      }
    </style>
  </defs>
  <g id="Layer_2-2" data-name="Layer_2">
    <path class="cls-1" d="M152.48,154.7L3.57,67.94c-2.51,4.47-3.59,9.74-2.83,15.09l19.59,138.62c.89,6.28,4.23,11.96,9.29,15.78l12.61,9.53,95.8,72.45c4.28,3.23,9.37,4.85,14.46,4.86v-169.57Z"/>
    <path class="cls-1" d="M3.57,67.94l148.91,86.76,151.63-88.07c-2.56-4.52-6.57-8.21-11.62-10.32L163.64,2.36c-5.97-2.5-12.7-2.48-18.65.05l-58.17,24.71L15.12,57.59c-5.03,2.14-9.02,5.84-11.55,10.36Z"/>
    <path class="cls-1" d="M306.99,81.8c.76-5.38-.34-10.68-2.88-15.16l-151.63,88.07v169.57c5.09,0,10.19-1.61,14.47-4.84l29.24-22.06,82.06-61.91c5.07-3.83,8.42-9.51,9.31-15.81l9.19-65.22,10.24-72.63Z"/>
  </g>
</svg>